<svg width="1191" height="151" viewBox="0 0 1191 151" fill="none" xmlns="http://www.w3.org/2000/svg">
<path d="M-2.40877e-05 86.85H31.65C32.15 89.95 33.6 92.65 36 94.95C38.4 97.25 41.6 99.05 45.6 100.35C49.7 101.55 54.5 102.15 60 102.15C67.6 102.15 73.6 101.2 78 99.3C82.4 97.3 84.6 94.4 84.6 90.6C84.6 87.7 83.35 85.45 80.85 83.85C78.35 82.25 73.55 81.1 66.45 80.4L45.45 78.45C29.95 77.05 18.7 73.55 11.7 67.95C4.69998 62.25 1.19998 54.6 1.19998 45C1.19998 37.2 3.44998 30.6 7.94998 25.2C12.55 19.8 18.95 15.75 27.15 13.05C35.45 10.25 45.1 8.85 56.1 8.85C66.9 8.85 76.5 10.4 84.9 13.5C93.3 16.5 99.95 20.8 104.85 26.4C109.85 32 112.55 38.5 112.95 45.9H81.45C81.05 43.2 79.75 40.9 77.55 39C75.45 37 72.55 35.5 68.85 34.5C65.15 33.4 60.7 32.85 55.5 32.85C48.5 32.85 42.95 33.8 38.85 35.7C34.75 37.5 32.7 40.2 32.7 43.8C32.7 46.4 33.9 48.5 36.3 50.1C38.8 51.7 43.25 52.8 49.65 53.4L72 55.65C82.7 56.65 91.25 58.4 97.65 60.9C104.05 63.3 108.7 66.65 111.6 70.95C114.5 75.25 115.95 80.6 115.95 87C115.95 94.9 113.6 101.8 108.9 107.7C104.2 113.5 97.6 118.05 89.1 121.35C80.6 124.55 70.7 126.15 59.4 126.15C47.8 126.15 37.55 124.55 28.65 121.35C19.85 118.05 12.95 113.45 7.94998 107.55C2.94998 101.55 0.299976 94.65 -2.40877e-05 86.85ZM245.83 38.1H276.58V62.7L275.23 66.3V90.3L276.58 97.35V148.5H245.83V38.1ZM266.83 81C268.13 71.7 270.83 63.7 274.93 57C279.13 50.2 284.43 44.95 290.83 41.25C297.23 37.45 304.48 35.55 312.58 35.55C320.98 35.55 328.33 37.45 334.63 41.25C341.03 45.05 345.98 50.35 349.48 57.15C353.08 63.95 354.88 71.9 354.88 81C354.88 89.9 353.08 97.8 349.48 104.7C345.98 111.5 341.03 116.8 334.63 120.6C328.33 124.3 320.98 126.15 312.58 126.15C304.48 126.15 297.23 124.3 290.83 120.6C284.43 116.8 279.18 111.5 275.08 104.7C270.98 97.9 268.23 90 266.83 81ZM323.98 81C323.98 76.7 323.08 72.9 321.28 69.6C319.58 66.3 317.13 63.7 313.93 61.8C310.83 59.9 307.28 58.95 303.28 58.95C299.18 58.95 295.28 59.9 291.58 61.8C287.88 63.7 284.63 66.3 281.83 69.6C279.03 72.9 276.88 76.7 275.38 81C276.88 85.2 279.03 88.95 281.83 92.25C284.63 95.55 287.88 98.15 291.58 100.05C295.28 101.85 299.18 102.75 303.28 102.75C307.28 102.75 310.83 101.85 313.93 100.05C317.13 98.15 319.58 95.55 321.28 92.25C323.08 88.95 323.98 85.2 323.98 81ZM480.655 38.1H511.855L516.955 68.7V123.75H486.355V66.9L480.655 38.1ZM557.155 36.75V62.85C554.155 62.25 551.305 61.85 548.605 61.65C546.005 61.35 543.605 61.2 541.405 61.2C537.005 61.2 532.955 62.1 529.255 63.9C525.555 65.6 522.555 68.45 520.255 72.45C518.055 76.45 516.955 81.8 516.955 88.5L511.105 81.3C511.905 75.1 513.105 69.3 514.705 63.9C516.305 58.4 518.455 53.55 521.155 49.35C523.955 45.05 527.405 41.7 531.505 39.3C535.605 36.8 540.605 35.55 546.505 35.55C548.205 35.55 549.955 35.65 551.755 35.85C553.555 36.05 555.355 36.35 557.155 36.75ZM684.615 36.75L700.065 39.75L715.365 36.75V123.75H684.615V36.75ZM699.915 29.7C694.615 29.7 690.315 28.4 687.015 25.8C683.715 23.1 682.065 19.45 682.065 14.85C682.065 10.35 683.715 6.75 687.015 4.04999C690.315 1.34999 694.615 -7.15256e-06 699.915 -7.15256e-06C705.415 -7.15256e-06 709.765 1.34999 712.965 4.04999C716.265 6.75 717.915 10.35 717.915 14.85C717.915 19.45 716.265 23.1 712.965 25.8C709.765 28.4 705.415 29.7 699.915 29.7ZM845.173 38.1H875.923L881.473 72.3V123.75H850.873V67.65L845.173 38.1ZM912.973 35.55C921.173 35.55 928.173 37.2 933.973 40.5C939.773 43.8 944.173 48.45 947.173 54.45C950.273 60.45 951.823 67.55 951.823 75.75V123.75H921.223V80.25C921.223 73.85 919.573 68.95 916.273 65.55C913.073 62.15 908.423 60.45 902.323 60.45C898.123 60.45 894.423 61.35 891.223 63.15C888.123 64.95 885.723 67.5 884.023 70.8C882.323 74.1 881.473 78 881.473 82.5L872.023 77.55C873.223 68.45 875.773 60.8 879.673 54.6C883.573 48.3 888.373 43.55 894.073 40.35C899.773 37.15 906.073 35.55 912.973 35.55ZM1159.43 102.15V87.6L1160.48 84V63L1159.43 59.85V38.1H1190.03V100.95C1190.03 111.45 1187.58 120.45 1182.68 127.95C1177.78 135.45 1170.93 141.15 1162.13 145.05C1153.43 148.95 1143.13 150.9 1131.23 150.9C1123.33 150.9 1115.98 149.85 1109.18 147.75C1102.48 145.75 1095.78 142.75 1089.08 138.75V115.65C1095.28 120.25 1101.78 123.55 1108.58 125.55C1115.48 127.65 1122.38 128.7 1129.28 128.7C1139.08 128.7 1146.53 126.6 1151.63 122.4C1156.83 118.2 1159.43 111.45 1159.43 102.15ZM1122.68 114.75C1114.58 114.75 1107.38 113.1 1101.08 109.8C1094.78 106.5 1089.78 101.9 1086.08 96C1082.48 90 1080.68 83.05 1080.68 75.15C1080.68 67.15 1082.48 60.2 1086.08 54.3C1089.78 48.4 1094.78 43.8 1101.08 40.5C1107.38 37.2 1114.58 35.55 1122.68 35.55C1128.68 35.55 1134.18 36.5 1139.18 38.4C1144.18 40.2 1148.63 42.65 1152.53 45.75C1156.43 48.75 1159.68 52.05 1162.28 55.65C1164.98 59.15 1167.03 62.65 1168.43 66.15C1169.83 69.65 1170.53 72.75 1170.53 75.45C1170.53 79.15 1169.43 83.25 1167.23 87.75C1165.13 92.25 1162.03 96.55 1157.93 100.65C1153.83 104.75 1148.78 108.15 1142.78 110.85C1136.88 113.45 1130.18 114.75 1122.68 114.75ZM1133.03 93.9C1138.93 93.9 1144.18 92.35 1148.78 89.25C1153.38 86.15 1157.28 81.45 1160.48 75.15C1157.18 68.75 1153.23 64.05 1148.63 61.05C1144.03 57.95 1138.83 56.4 1133.03 56.4C1128.63 56.4 1124.78 57.15 1121.48 58.65C1118.28 60.15 1115.83 62.35 1114.13 65.25C1112.43 68.05 1111.58 71.35 1111.58 75.15C1111.58 78.85 1112.43 82.15 1114.13 85.05C1115.83 87.85 1118.28 90.05 1121.48 91.65C1124.68 93.15 1128.53 93.9 1133.03 93.9Z" fill="url(#paint0_linear_729_7167)"/>
<defs>
<linearGradient id="paint0_linear_729_7167" x1="595.718" y1="198.25" x2="595.718" y2="31.25" gradientUnits="userSpaceOnUse">
<stop stop-color="#2B9CB6"/>
<stop offset="1" stop-color="white"/>
</linearGradient>
</defs>
</svg>
